<svg xmlns="http://www.w3.org/2000/svg" width="1440" height="1625" viewBox="0 0 1440 1625" fill="none">
            <mask id="path-1-inside-1_33_32" fill="white">
              <path d="M-252 1461.39H-89.19V1624.2H-252V1461.39Z" />
              <path d="M-252 1299.19H-89.19V1462H-252V1299.19Z" />
              <path d="M-252 1136.98H-89.19V1299.79H-252V1136.98Z" />
              <path d="M-252 974.781H-89.19V1137.59H-252V974.781Z" />
              <path d="M-252 812.579H-89.19V975.389H-252V812.579Z" />
              <path d="M-90.405 1461.39H72.405V1624.2H-90.405V1461.39Z" />
              <path d="M-90.405 1299.19H72.405V1462H-90.405V1299.19Z" />
              <path d="M-90.405 1136.98H72.405V1299.79H-90.405V1136.98Z" />
              <path d="M-90.405 974.781H72.405V1137.59H-90.405V974.781Z" />
              <path d="M-90.405 812.579H72.405V975.389H-90.405V812.579Z" />
              <path d="M71.7975 1461.39H234.607V1624.2H71.7975V1461.39Z" />
              <path d="M71.7975 1299.19H234.607V1462H71.7975V1299.19Z" />
              <path d="M71.7975 1136.98H234.607V1299.79H71.7975V1136.98Z" />
              <path d="M71.7975 974.781H234.607V1137.59H71.7975V974.781Z" />
              <path d="M71.7975 812.579H234.607V975.389H71.7975V812.579Z" />
              <path d="M233.392 1461.39H396.203V1624.2H233.392V1461.39Z" />
              <path d="M233.392 1299.19H396.203V1462H233.392V1299.19Z" />
              <path d="M233.392 1136.98H396.203V1299.79H233.392V1136.98Z" />
              <path d="M233.392 974.781H396.203V1137.59H233.392V974.781Z" />
              <path d="M233.392 812.579H396.203V975.389H233.392V812.579Z" />
              <path d="M395.595 1461.39H558.405V1624.2H395.595V1461.39Z" />
              <path d="M395.595 1299.19H558.405V1462H395.595V1299.19Z" />
              <path d="M395.595 1136.98H558.405V1299.79H395.595V1136.98Z" />
              <path d="M395.595 974.781H558.405V1137.59H395.595V974.781Z" />
              <path d="M395.595 812.579H558.405V975.389H395.595V812.579Z" />
              <path d="M557.19 1461.39H720V1624.2H557.19V1461.39Z" />
              <path d="M557.19 1299.19H720V1462H557.19V1299.19Z" />
              <path d="M557.19 1136.98H720V1299.79H557.19V1136.98Z" />
              <path d="M557.19 974.781H720V1137.59H557.19V974.781Z" />
              <path d="M557.19 812.579H720V975.389H557.19V812.579Z" />
              <path d="M-252 649.769H-89.19V812.579H-252V649.769Z" />
              <path d="M-252 487.566H-89.19V650.376H-252V487.566Z" />
              <path d="M-252 325.364H-89.19V488.174H-252V325.364Z" />
              <path d="M-252 163.161H-89.19V325.971H-252V163.161Z" />
              <path d="M-252 0.95874H-89.19V163.769H-252V0.95874Z" />
              <path d="M-90.405 649.769H72.405V812.579H-90.405V649.769Z" />
              <path d="M-90.405 487.566H72.405V650.376H-90.405V487.566Z" />
              <path d="M-90.405 325.364H72.405V488.174H-90.405V325.364Z" />
              <path d="M-90.405 163.161H72.405V325.971H-90.405V163.161Z" />
              <path d="M-90.405 0.958857H72.405V163.769H-90.405V0.958857Z" />
              <path d="M71.7975 649.769H234.607V812.579H71.7975V649.769Z" />
              <path d="M71.7975 487.566H234.607V650.376H71.7975V487.566Z" />
              <path d="M71.7975 325.364H234.607V488.174H71.7975V325.364Z" />
              <path d="M71.7975 163.161H234.607V325.971H71.7975V163.161Z" />
              <path d="M71.7975 0.958857H234.607V163.769H71.7975V0.958857Z" />
              <path d="M233.392 649.769H396.203V812.579H233.392V649.769Z" />
              <path d="M233.392 487.566H396.203V650.376H233.392V487.566Z" />
              <path d="M233.392 325.364H396.203V488.174H233.392V325.364Z" />
              <path d="M233.392 163.161H396.203V325.971H233.392V163.161Z" />
              <path d="M233.392 0.958857H396.203V163.769H233.392V0.958857Z" />
              <path d="M395.595 649.769H558.405V812.579H395.595V649.769Z" />
              <path d="M395.595 487.566H558.405V650.376H395.595V487.566Z" />
              <path d="M395.595 325.364H558.405V488.174H395.595V325.364Z" />
              <path d="M395.595 163.161H558.405V325.971H395.595V163.161Z" />
              <path d="M395.595 0.958857H558.405V163.769H395.595V0.958857Z" />
              <path d="M557.19 649.769H720V812.579H557.19V649.769Z" />
              <path d="M557.19 487.566H720V650.376H557.19V487.566Z" />
              <path d="M557.19 325.364H720V488.174H557.19V325.364Z" />
              <path d="M557.19 163.161H720V325.971H557.19V163.161Z" />
              <path d="M557.19 0.958857H720V163.769H557.19V0.958857Z" />
              <path d="M720 649.769L882.81 649.769V812.579L720 812.579V649.769Z" />
              <path d="M720 487.566L882.81 487.566V650.376L720 650.376V487.566Z" />
              <path d="M720 325.364L882.81 325.364V488.174L720 488.174V325.364Z" />
              <path d="M720 163.161L882.81 163.161V325.971L720 325.971V163.161Z" />
              <path d="M720 0.958857H882.81V163.769H720V0.958857Z" />
              <path d="M881.595 649.769H1044.41V812.579H881.595V649.769Z" />
              <path d="M881.595 487.566H1044.41V650.376H881.595V487.566Z" />
              <path d="M881.595 325.364H1044.41V488.174H881.595V325.364Z" />
              <path d="M881.595 163.161H1044.41V325.971H881.595V163.161Z" />
              <path d="M881.595 0.958975H1044.41V163.769H881.595V0.958975Z" />
              <path d="M1043.8 649.769H1206.61V812.579H1043.8V649.769Z" />
              <path d="M1043.8 487.566H1206.61V650.376H1043.8V487.566Z" />
              <path d="M1043.8 325.364H1206.61V488.174H1043.8V325.364Z" />
              <path d="M1043.8 163.161H1206.61V325.971H1043.8V163.161Z" />
              <path d="M1043.8 0.958975H1206.61V163.769H1043.8V0.958975Z" />
              <path d="M1205.39 649.769H1368.2V812.579H1205.39V649.769Z" />
              <path d="M1205.39 487.566H1368.2V650.376H1205.39V487.566Z" />
              <path d="M1205.39 325.364H1368.2V488.174H1205.39V325.364Z" />
              <path d="M1205.39 163.161H1368.2V325.971H1205.39V163.161Z" />
              <path d="M1205.39 0.958975H1368.2V163.769H1205.39V0.958975Z" />
              <path d="M1367.59 649.769H1530.41V812.579H1367.59V649.769Z" />
              <path d="M1367.59 487.566H1530.41V650.376H1367.59V487.566Z" />
              <path d="M1367.59 325.364H1530.41V488.174H1367.59V325.364Z" />
              <path d="M1367.59 163.161H1530.41V325.971H1367.59V163.161Z" />
              <path d="M1367.59 0.958975H1530.41V163.769H1367.59V0.958975Z" />
              <path d="M1529.19 649.769H1692V812.579H1529.19V649.769Z" />
              <path d="M1529.19 487.566H1692V650.376H1529.19V487.566Z" />
              <path d="M1529.19 325.364H1692V488.174H1529.19V325.364Z" />
              <path d="M1529.19 163.161H1692V325.971H1529.19V163.161Z" />
              <path d="M1529.19 0.958975H1692V163.769H1529.19V0.958975Z" />
              <path d="M718.785 1461.39H881.595V1624.2H718.785V1461.39Z" />
              <path d="M718.785 1299.19H881.595V1462H718.785V1299.19Z" />
              <path d="M718.785 1136.98H881.595V1299.79H718.785V1136.98Z" />
              <path d="M718.785 974.781H881.595V1137.59H718.785V974.781Z" />
              <path d="M718.785 812.579L881.595 812.579V975.389H718.785V812.579Z" />
              <path d="M880.38 1461.39H1043.19V1624.2H880.38V1461.39Z" />
              <path d="M880.38 1299.19H1043.19V1462H880.38V1299.19Z" />
              <path d="M880.38 1136.98H1043.19V1299.79H880.38V1136.98Z" />
              <path d="M880.38 974.781H1043.19V1137.59H880.38V974.781Z" />
              <path d="M880.38 812.579H1043.19V975.389H880.38V812.579Z" />
              <path d="M1042.58 1461.39H1205.39V1624.2H1042.58V1461.39Z" />
              <path d="M1042.58 1299.19H1205.39V1462H1042.58V1299.19Z" />
              <path d="M1042.58 1136.98H1205.39V1299.79H1042.58V1136.98Z" />
              <path d="M1042.58 974.781H1205.39V1137.59H1042.58V974.781Z" />
              <path d="M1042.58 812.579L1205.39 812.579L1205.39 975.389H1042.58V812.579Z" />
              <path d="M1204.18 1461.39H1366.99V1624.2H1204.18V1461.39Z" />
              <path d="M1204.18 1299.19H1366.99V1462H1204.18V1299.19Z" />
              <path d="M1204.18 1136.98H1366.99V1299.79H1204.18V1136.98Z" />
              <path d="M1204.18 974.781H1366.99V1137.59H1204.18V974.781Z" />
              <path d="M1204.18 812.579H1366.99V975.389H1204.18V812.579Z" />
              <path d="M1366.38 1461.39H1529.19V1624.2H1366.38V1461.39Z" />
              <path d="M1366.38 1299.19H1529.19V1462H1366.38V1299.19Z" />
              <path d="M1366.38 1136.98H1529.19V1299.79H1366.38V1136.98Z" />
              <path d="M1366.38 974.781H1529.19V1137.59H1366.38V974.781Z" />
              <path d="M1366.38 812.579L1529.19 812.579L1529.19 975.389H1366.38V812.579Z" />
              <path d="M1527.97 1461.39H1690.78V1624.2H1527.97V1461.39Z" />
              <path d="M1527.97 1299.19H1690.78V1462H1527.97V1299.19Z" />
              <path d="M1527.97 1136.98H1690.78V1299.79H1527.97V1136.98Z" />
              <path d="M1527.97 974.781H1690.78V1137.59H1527.97V974.781Z" />
              <path d="M1527.97 812.579H1690.78V975.389H1527.97V812.579Z" />
            </mask>
            <path d="M720 812.579V813.079H720.5V812.579H720ZM-252 813.079H-89.19V812.079H-252V813.079ZM-90.405 813.079H72.405V812.079H-90.405V813.079ZM71.7975 813.079H234.607V812.079H71.7975V813.079ZM233.392 813.079H396.203V812.079H233.392V813.079ZM395.595 813.079H558.405V812.079H395.595V813.079ZM557.19 813.079H720V812.079H557.19V813.079ZM719.5 649.769V812.579H720.5V649.769H719.5ZM719.5 487.566V650.376H720.5V487.566H719.5ZM719.5 325.364V488.174H720.5V325.364H719.5ZM719.5 163.161V325.971H720.5V163.161H719.5ZM719.5 0.958857V163.769H720.5V0.958857H719.5ZM-252 1461.39V1460.39H-253V1461.39H-252ZM-89.19 1461.39H-88.19V1460.39H-89.19V1461.39ZM-89.19 1624.2V1625.2H-88.19V1624.2H-89.19ZM-252 1624.2H-253V1625.2H-252V1624.2ZM-252 1299.19V1298.19H-253V1299.19H-252ZM-89.19 1299.19H-88.19V1298.19H-89.19V1299.19ZM-89.19 1462V1463H-88.19V1462H-89.19ZM-252 1462H-253V1463H-252V1462ZM-252 1136.98V1135.98H-253V1136.98H-252ZM-89.19 1136.98H-88.19V1135.98H-89.19V1136.98ZM-89.19 1299.79V1300.79H-88.19V1299.79H-89.19ZM-252 1299.79H-253V1300.79H-252V1299.79ZM-252 974.781V973.781H-253V974.781H-252ZM-89.19 974.781H-88.19V973.781H-89.19V974.781ZM-89.19 1137.59V1138.59H-88.19V1137.59H-89.19ZM-252 1137.59H-253V1138.59H-252V1137.59ZM-89.19 975.389V976.389H-88.19V975.389H-89.19ZM-252 975.389H-253V976.389H-252V975.389ZM-90.405 1461.39V1460.39H-91.405V1461.39H-90.405ZM72.405 1461.39H73.405V1460.39H72.405V1461.39ZM72.405 1624.2V1625.2H73.405V1624.2H72.405ZM-90.405 1624.2H-91.405V1625.2H-90.405V1624.2ZM-90.405 1299.19V1298.19H-91.405V1299.19H-90.405ZM72.405 1299.19H73.405V1298.19H72.405V1299.19ZM72.405 1462V1463H73.405V1462H72.405ZM-90.405 1462H-91.405V1463H-90.405V1462ZM-90.405 1136.98V1135.98H-91.405V1136.98H-90.405ZM72.405 1136.98H73.405V1135.98H72.405V1136.98ZM72.405 1299.79V1300.79H73.405V1299.79H72.405ZM-90.405 1299.79H-91.405V1300.79H-90.405V1299.79ZM-90.405 974.781V973.781H-91.405V974.781H-90.405ZM72.405 974.781H73.405V973.781H72.405V974.781ZM72.405 1137.59V1138.59H73.405V1137.59H72.405ZM-90.405 1137.59H-91.405V1138.59H-90.405V1137.59ZM72.405 975.389V976.389H73.405V975.389H72.405ZM-90.405 975.389H-91.405V976.389H-90.405V975.389ZM71.7975 1461.39V1460.39H70.7975V1461.39H71.7975ZM234.607 1461.39H235.607V1460.39H234.607V1461.39ZM234.607 1624.2V1625.2H235.607V1624.2H234.607ZM71.7975 1624.2H70.7975V1625.2H71.7975V1624.2ZM71.7975 1299.19V1298.19H70.7975V1299.19H71.7975ZM234.607 1299.19H235.607V1298.19H234.607V1299.19ZM234.607 1462V1463H235.607V1462H234.607ZM71.7975 1462H70.7975V1463H71.7975V1462ZM71.7975 1136.98V1135.98H70.7975V1136.98H71.7975ZM234.607 1136.98H235.607V1135.98H234.607V1136.98ZM234.607 1299.79V1300.79H235.607V1299.79H234.607ZM71.7975 1299.79H70.7975V1300.79H71.7975V1299.79ZM71.7975 974.781V973.781H70.7975V974.781H71.7975ZM234.607 974.781H235.607V973.781H234.607V974.781ZM234.607 1137.59V1138.59H235.607V1137.59H234.607ZM71.7975 1137.59H70.7975V1138.59H71.7975V1137.59ZM234.607 975.389V976.389H235.607V975.389H234.607ZM71.7975 975.389H70.7975V976.389H71.7975V975.389ZM233.392 1461.39V1460.39H232.392V1461.39H233.392ZM396.203 1461.39H397.203V1460.39H396.203V1461.39ZM396.203 1624.2V1625.2H397.203V1624.2H396.203ZM233.392 1624.2H232.392V1625.2H233.392V1624.2ZM233.392 1299.19V1298.19H232.392V1299.19H233.392ZM396.203 1299.19H397.203V1298.19H396.203V1299.19ZM396.203 1462V1463H397.203V1462H396.203ZM233.392 1462H232.392V1463H233.392V1462ZM233.392 1136.98V1135.98H232.392V1136.98H233.392ZM396.203 1136.98H397.203V1135.98H396.203V1136.98ZM396.203 1299.79V1300.79H397.203V1299.79H396.203ZM233.392 1299.79H232.392V1300.79H233.392V1299.79ZM233.392 974.781V973.781H232.392V974.781H233.392ZM396.203 974.781H397.203V973.781H396.203V974.781ZM396.203 1137.59V1138.59H397.203V1137.59H396.203ZM233.392 1137.59H232.392V1138.59H233.392V1137.59ZM396.203 975.389V976.389H397.203V975.389H396.203ZM233.392 975.389H232.392V976.389H233.392V975.389ZM395.595 1461.39V1460.39H394.595V1461.39H395.595ZM558.405 1461.39H559.405V1460.39H558.405V1461.39ZM558.405 1624.2V1625.2H559.405V1624.2H558.405ZM395.595 1624.2H394.595V1625.2H395.595V1624.2ZM395.595 1299.19V1298.19H394.595V1299.19H395.595ZM558.405 1299.19H559.405V1298.19H558.405V1299.19ZM558.405 1462V1463H559.405V1462H558.405ZM395.595 1462H394.595V1463H395.595V1462ZM395.595 1136.98V1135.98H394.595V1136.98H395.595ZM558.405 1136.98H559.405V1135.98H558.405V1136.98ZM558.405 1299.79V1300.79H559.405V1299.79H558.405ZM395.595 1299.79H394.595V1300.79H395.595V1299.79ZM395.595 974.781V973.781H394.595V974.781H395.595ZM558.405 974.781H559.405V973.781H558.405V974.781ZM558.405 1137.59V1138.59H559.405V1137.59H558.405ZM395.595 1137.59H394.595V1138.59H395.595V1137.59ZM558.405 975.389V976.389H559.405V975.389H558.405ZM395.595 975.389H394.595V976.389H395.595V975.389ZM557.19 1461.39V1460.39H556.19V1461.39H557.19ZM720 1461.39H721V1460.39H720V1461.39ZM720 1624.2V1625.2H721V1624.2H720ZM557.19 1624.2H556.19V1625.2H557.19V1624.2ZM557.19 1299.19V1298.19H556.19V1299.19H557.19ZM720 1299.19H721V1298.19H720V1299.19ZM720 1462V1463H721V1462H720ZM557.19 1462H556.19V1463H557.19V1462ZM557.19 1136.98V1135.98H556.19V1136.98H557.19ZM720 1136.98H721V1135.98H720V1136.98ZM720 1299.79V1300.79H721V1299.79H720ZM557.19 1299.79H556.19V1300.79H557.19V1299.79ZM557.19 974.781V973.781H556.19V974.781H557.19ZM720 974.781H721V973.781H720V974.781ZM720 1137.59V1138.59H721V1137.59H720ZM557.19 1137.59H556.19V1138.59H557.19V1137.59ZM720 812.579L720 811.579L719 811.579V812.579H720ZM720 975.389V976.389H721V975.389H720ZM557.19 975.389H556.19V976.389H557.19V975.389ZM-252 649.769V648.769H-253V649.769H-252ZM-89.19 649.769H-88.19V648.769H-89.19V649.769ZM-252 487.566V486.566H-253V487.566H-252ZM-89.19 487.566H-88.19V486.566H-89.19V487.566ZM-89.19 650.376V651.376H-88.19V650.376H-89.19ZM-252 650.376H-253V651.376H-252V650.376ZM-252 325.364V324.364H-253V325.364H-252ZM-89.19 325.364H-88.19V324.364H-89.19V325.364ZM-89.19 488.174V489.174H-88.19V488.174H-89.19ZM-252 488.174H-253V489.174H-252V488.174ZM-252 163.161V162.161H-253V163.161H-252ZM-89.19 163.161H-88.19V162.161H-89.19V163.161ZM-89.19 325.971V326.971H-88.19V325.971H-89.19ZM-252 325.971H-253V326.971H-252V325.971ZM-252 0.95874V-0.0412598H-253V0.95874H-252ZM-89.19 0.95874H-88.19V-0.0412598H-89.19V0.95874ZM-89.19 163.769V164.769H-88.19V163.769H-89.19ZM-252 163.769H-253V164.769H-252V163.769ZM-90.405 649.769V648.769H-91.405V649.769H-90.405ZM72.405 649.769H73.405V648.769H72.405V649.769ZM-90.405 487.566V486.566H-91.405V487.566H-90.405ZM72.405 487.566H73.405V486.566H72.405V487.566ZM72.405 650.376V651.376H73.405V650.376H72.405ZM-90.405 650.376H-91.405V651.376H-90.405V650.376ZM-90.405 325.364V324.364H-91.405V325.364H-90.405ZM72.405 325.364H73.405V324.364H72.405V325.364ZM72.405 488.174V489.174H73.405V488.174H72.405ZM-90.405 488.174H-91.405V489.174H-90.405V488.174ZM-90.405 163.161V162.161H-91.405V163.161H-90.405ZM72.405 163.161H73.405V162.161H72.405V163.161ZM72.405 325.971V326.971H73.405V325.971H72.405ZM-90.405 325.971H-91.405V326.971H-90.405V325.971ZM-90.405 0.958857V-0.0411426H-91.405V0.958857H-90.405ZM72.405 0.958857H73.405V-0.0411426H72.405V0.958857ZM72.405 163.769V164.769H73.405V163.769H72.405ZM-90.405 163.769H-91.405V164.769H-90.405V163.769ZM71.7975 649.769V648.769H70.7975V649.769H71.7975ZM234.607 649.769H235.607V648.769H234.607V649.769ZM71.7975 487.566V486.566H70.7975V487.566H71.7975ZM234.607 487.566H235.607V486.566H234.607V487.566ZM234.607 650.376V651.376H235.607V650.376H234.607ZM71.7975 650.376H70.7975V651.376H71.7975V650.376ZM71.7975 325.364V324.364H70.7975V325.364H71.7975ZM234.607 325.364H235.607V324.364H234.607V325.364ZM234.607 488.174V489.174H235.607V488.174H234.607ZM71.7975 488.174H70.7975V489.174H71.7975V488.174ZM71.7975 163.161V162.161H70.7975V163.161H71.7975ZM234.607 163.161H235.607V162.161H234.607V163.161ZM234.607 325.971V326.971H235.607V325.971H234.607ZM71.7975 325.971H70.7975V326.971H71.7975V325.971ZM71.7975 0.958857V-0.0411426H70.7975V0.958857H71.7975ZM234.607 0.958857H235.607V-0.0411426H234.607V0.958857ZM234.607 163.769V164.769H235.607V163.769H234.607ZM71.7975 163.769H70.7975V164.769H71.7975V163.769ZM233.392 649.769V648.769H232.392V649.769H233.392ZM396.203 649.769H397.203V648.769H396.203V649.769ZM233.392 487.566V486.566H232.392V487.566H233.392ZM396.203 487.566H397.203V486.566H396.203V487.566ZM396.203 650.376V651.376H397.203V650.376H396.203ZM233.392 650.376H232.392V651.376H233.392V650.376ZM233.392 325.364V324.364H232.392V325.364H233.392ZM396.203 325.364H397.203V324.364H396.203V325.364ZM396.203 488.174V489.174H397.203V488.174H396.203ZM233.392 488.174H232.392V489.174H233.392V488.174ZM233.392 163.161V162.161H232.392V163.161H233.392ZM396.203 163.161H397.203V162.161H396.203V163.161ZM396.203 325.971V326.971H397.203V325.971H396.203ZM233.392 325.971H232.392V326.971H233.392V325.971ZM233.392 0.958857V-0.0411426H232.392V0.958857H233.392ZM396.203 0.958857H397.203V-0.0411426H396.203V0.958857ZM396.203 163.769V164.769H397.203V163.769H396.203ZM233.392 163.769H232.392V164.769H233.392V163.769ZM395.595 649.769V648.769H394.595V649.769H395.595ZM558.405 649.769H559.405V648.769H558.405V649.769ZM395.595 487.566V486.566H394.595V487.566H395.595ZM558.405 487.566H559.405V486.566H558.405V487.566ZM558.405 650.376V651.376H559.405V650.376H558.405ZM395.595 650.376H394.595V651.376H395.595V650.376ZM395.595 325.364V324.364H394.595V325.364H395.595ZM558.405 325.364H559.405V324.364H558.405V325.364ZM558.405 488.174V489.174H559.405V488.174H558.405ZM395.595 488.174H394.595V489.174H395.595V488.174ZM395.595 163.161V162.161H394.595V163.161H395.595ZM558.405 163.161H559.405V162.161H558.405V163.161ZM558.405 325.971V326.971H559.405V325.971H558.405ZM395.595 325.971H394.595V326.971H395.595V325.971ZM395.595 0.958857V-0.0411426H394.595V0.958857H395.595ZM558.405 0.958857H559.405V-0.0411426H558.405V0.958857ZM558.405 163.769V164.769H559.405V163.769H558.405ZM395.595 163.769H394.595V164.769H395.595V163.769ZM557.19 649.769V648.769H556.19V649.769H557.19ZM720 649.769L720 648.769H720V649.769ZM557.19 487.566V486.566H556.19V487.566H557.19ZM720 487.566L720 486.566H720V487.566ZM720 650.376L720 649.376H720V650.376ZM557.19 650.376H556.19V651.376H557.19V650.376ZM557.19 325.364V324.364H556.19V325.364H557.19ZM720 325.364L720 324.364H720V325.364ZM720 488.174L720 487.174H720V488.174ZM557.19 488.174H556.19V489.174H557.19V488.174ZM557.19 163.161V162.161H556.19V163.161H557.19ZM720 163.161L720 162.161H720V163.161ZM720 325.971L720 324.971H720V325.971ZM557.19 325.971H556.19V326.971H557.19V325.971ZM557.19 0.958857V-0.0411426H556.19V0.958857H557.19ZM557.19 163.769H556.19V164.769H557.19V163.769ZM882.81 649.769H883.81V648.769L882.81 648.769L882.81 649.769ZM882.81 812.579L882.81 813.579L883.81 813.579V812.579H882.81ZM882.81 487.566H883.81V486.566L882.81 486.566L882.81 487.566ZM882.81 650.376L882.81 651.376L883.81 651.376V650.376H882.81ZM882.81 325.364H883.81V324.364L882.81 324.364L882.81 325.364ZM882.81 488.174L882.81 489.174L883.81 489.174V488.174H882.81ZM882.81 163.161H883.81V162.161L882.81 162.161L882.81 163.161ZM882.81 325.971L882.81 326.971L883.81 326.971V325.971H882.81ZM882.81 0.958857H883.81V-0.0411426H882.81V0.958857ZM882.81 163.769V164.769H883.81V163.769H882.81ZM881.595 649.769V648.769H880.595V649.769H881.595ZM1044.41 649.769H1045.41V648.769H1044.41V649.769ZM1044.41 812.579V813.579H1045.41V812.579H1044.41ZM881.595 487.566V486.566H880.595V487.566H881.595ZM1044.41 487.566H1045.41V486.566H1044.41V487.566ZM1044.41 650.376V651.376H1045.41V650.376H1044.41ZM881.595 650.376H880.595V651.376H881.595V650.376ZM881.595 325.364V324.364H880.595V325.364H881.595ZM1044.41 325.364H1045.41V324.364H1044.41V325.364ZM1044.41 488.174V489.174H1045.41V488.174H1044.41ZM881.595 488.174H880.595V489.174H881.595V488.174ZM881.595 163.161V162.161H880.595V163.161H881.595ZM1044.41 163.161H1045.41V162.161H1044.41V163.161ZM1044.41 325.971V326.971H1045.41V325.971H1044.41ZM881.595 325.971H880.595V326.971H881.595V325.971ZM881.595 0.958975V-0.0410254H880.595V0.958975H881.595ZM1044.41 0.958975H1045.41V-0.0410254H1044.41V0.958975ZM1044.41 163.769V164.769H1045.41V163.769H1044.41ZM881.595 163.769H880.595V164.769H881.595V163.769ZM1043.8 649.769V648.769H1042.8V649.769H1043.8ZM1206.61 649.769H1207.61V648.769H1206.61V649.769ZM1206.61 812.579V813.579H1207.61V812.579H1206.61ZM1043.8 812.579H1042.8V813.579H1043.8V812.579ZM1043.8 487.566V486.566H1042.8V487.566H1043.8ZM1206.61 487.566H1207.61V486.566H1206.61V487.566ZM1206.61 650.376V651.376H1207.61V650.376H1206.61ZM1043.8 650.376H1042.8V651.376H1043.8V650.376ZM1043.8 325.364V324.364H1042.8V325.364H1043.8ZM1206.61 325.364H1207.61V324.364H1206.61V325.364ZM1206.61 488.174V489.174H1207.61V488.174H1206.61ZM1043.8 488.174H1042.8V489.174H1043.8V488.174ZM1043.8 163.161V162.161H1042.8V163.161H1043.8ZM1206.61 163.161H1207.61V162.161H1206.61V163.161ZM1206.61 325.971V326.971H1207.61V325.971H1206.61ZM1043.8 325.971H1042.8V326.971H1043.8V325.971ZM1043.8 0.958975V-0.0410254H1042.8V0.958975H1043.8ZM1206.61 0.958975H1207.61V-0.0410254H1206.61V0.958975ZM1206.61 163.769V164.769H1207.61V163.769H1206.61ZM1043.8 163.769H1042.8V164.769H1043.8V163.769ZM1205.39 649.769V648.769H1204.39V649.769H1205.39ZM1368.2 649.769H1369.2V648.769H1368.2V649.769ZM1368.2 812.579V813.579H1369.2V812.579H1368.2ZM1205.39 487.566V486.566H1204.39V487.566H1205.39ZM1368.2 487.566H1369.2V486.566H1368.2V487.566ZM1368.2 650.376V651.376H1369.2V650.376H1368.2ZM1205.39 650.376H1204.39V651.376H1205.39V650.376ZM1205.39 325.364V324.364H1204.39V325.364H1205.39ZM1368.2 325.364H1369.2V324.364H1368.2V325.364ZM1368.2 488.174V489.174H1369.2V488.174H1368.2ZM1205.39 488.174H1204.39V489.174H1205.39V488.174ZM1205.39 163.161V162.161H1204.39V163.161H1205.39ZM1368.2 163.161H1369.2V162.161H1368.2V163.161ZM1368.2 325.971V326.971H1369.2V325.971H1368.2ZM1205.39 325.971H1204.39V326.971H1205.39V325.971ZM1205.39 0.958975V-0.0410254H1204.39V0.958975H1205.39ZM1368.2 0.958975H1369.2V-0.0410254H1368.2V0.958975ZM1368.2 163.769V164.769H1369.2V163.769H1368.2ZM1205.39 163.769H1204.39V164.769H1205.39V163.769ZM1367.59 649.769V648.769H1366.59V649.769H1367.59ZM1530.41 649.769H1531.41V648.769H1530.41V649.769ZM1530.41 812.579V813.579H1531.41V812.579H1530.41ZM1367.59 812.579H1366.59V813.579H1367.59V812.579ZM1367.59 487.566V486.566H1366.59V487.566H1367.59ZM1530.41 487.566H1531.41V486.566H1530.41V487.566ZM1530.41 650.376V651.376H1531.41V650.376H1530.41ZM1367.59 650.376H1366.59V651.376H1367.59V650.376ZM1367.59 325.364V324.364H1366.59V325.364H1367.59ZM1530.41 325.364H1531.41V324.364H1530.41V325.364ZM1530.41 488.174V489.174H1531.41V488.174H1530.41ZM1367.59 488.174H1366.59V489.174H1367.59V488.174ZM1367.59 163.161V162.161H1366.59V163.161H1367.59ZM1530.41 163.161H1531.41V162.161H1530.41V163.161ZM1530.41 325.971V326.971H1531.41V325.971H1530.41ZM1367.59 325.971H1366.59V326.971H1367.59V325.971ZM1367.59 0.958975V-0.0410254H1366.59V0.958975H1367.59ZM1530.41 0.958975H1531.41V-0.0410254H1530.41V0.958975ZM1530.41 163.769V164.769H1531.41V163.769H1530.41ZM1367.59 163.769H1366.59V164.769H1367.59V163.769ZM1529.19 649.769V648.769H1528.19V649.769H1529.19ZM1692 649.769H1693V648.769H1692V649.769ZM1692 812.579V813.579H1693V812.579H1692ZM1529.19 487.566V486.566H1528.19V487.566H1529.19ZM1692 487.566H1693V486.566H1692V487.566ZM1692 650.376V651.376H1693V650.376H1692ZM1529.19 650.376H1528.19V651.376H1529.19V650.376ZM1529.19 325.364V324.364H1528.19V325.364H1529.19ZM1692 325.364H1693V324.364H1692V325.364ZM1692 488.174V489.174H1693V488.174H1692ZM1529.19 488.174H1528.19V489.174H1529.19V488.174ZM1529.19 163.161V162.161H1528.19V163.161H1529.19ZM1692 163.161H1693V162.161H1692V163.161ZM1692 325.971V326.971H1693V325.971H1692ZM1529.19 325.971H1528.19V326.971H1529.19V325.971ZM1529.19 0.958975V-0.0410254H1528.19V0.958975H1529.19ZM1692 0.958975H1693V-0.0410254H1692V0.958975ZM1692 163.769V164.769H1693V163.769H1692ZM1529.19 163.769H1528.19V164.769H1529.19V163.769ZM718.785 1461.39V1460.39H717.785V1461.39H718.785ZM881.595 1461.39H882.595V1460.39H881.595V1461.39ZM881.595 1624.2V1625.2H882.595V1624.2H881.595ZM718.785 1624.2H717.785V1625.2H718.785V1624.2ZM718.785 1299.19V1298.19H717.785V1299.19H718.785ZM881.595 1299.19H882.595V1298.19H881.595V1299.19ZM881.595 1462V1463H882.595V1462H881.595ZM718.785 1462H717.785V1463H718.785V1462ZM718.785 1136.98V1135.98H717.785V1136.98H718.785ZM881.595 1136.98H882.595V1135.98H881.595V1136.98ZM881.595 1299.79V1300.79H882.595V1299.79H881.595ZM718.785 1299.79H717.785V1300.79H718.785V1299.79ZM718.785 974.781V973.781H717.785V974.781H718.785ZM881.595 974.781H882.595V973.781H881.595V974.781ZM881.595 1137.59V1138.59H882.595V1137.59H881.595ZM718.785 1137.59H717.785V1138.59H718.785V1137.59ZM718.785 812.579L718.785 811.579L717.785 811.579V812.579H718.785ZM881.595 975.389V976.389H882.595V975.389H881.595ZM718.785 975.389H717.785V976.389H718.785V975.389ZM880.38 1461.39V1460.39H879.38V1461.39H880.38ZM1043.19 1461.39H1044.19V1460.39H1043.19V1461.39ZM1043.19 1624.2V1625.2H1044.19V1624.2H1043.19ZM880.38 1624.2H879.38V1625.2H880.38V1624.2ZM880.38 1299.19V1298.19H879.38V1299.19H880.38ZM1043.19 1299.19H1044.19V1298.19H1043.19V1299.19ZM1043.19 1462V1463H1044.19V1462H1043.19ZM880.38 1462H879.38V1463H880.38V1462ZM880.38 1136.98V1135.98H879.38V1136.98H880.38ZM1043.19 1136.98H1044.19V1135.98H1043.19V1136.98ZM1043.19 1299.79V1300.79H1044.19V1299.79H1043.19ZM880.38 1299.79H879.38V1300.79H880.38V1299.79ZM880.38 974.781V973.781H879.38V974.781H880.38ZM1043.19 974.781H1044.19V973.781H1043.19V974.781ZM1043.19 1137.59V1138.59H1044.19V1137.59H1043.19ZM880.38 1137.59H879.38V1138.59H880.38V1137.59ZM880.38 812.579V811.579H879.38V812.579H880.38ZM1043.19 812.579H1044.19V811.579H1043.19V812.579ZM1043.19 975.389V976.389H1044.19V975.389H1043.19ZM880.38 975.389H879.38V976.389H880.38V975.389ZM1042.58 1461.39V1460.39H1041.58V1461.39H1042.58ZM1205.39 1461.39H1206.39V1460.39H1205.39V1461.39ZM1205.39 1624.2V1625.2H1206.39V1624.2H1205.39ZM1042.58 1624.2H1041.58V1625.2H1042.58V1624.2ZM1042.58 1299.19V1298.19H1041.58V1299.19H1042.58ZM1205.39 1299.19H1206.39V1298.19H1205.39V1299.19ZM1205.39 1462V1463H1206.39V1462H1205.39ZM1042.58 1462H1041.58V1463H1042.58V1462ZM1042.58 1136.98V1135.98H1041.58V1136.98H1042.58ZM1205.39 1136.98H1206.39V1135.98H1205.39V1136.98ZM1205.39 1299.79V1300.79H1206.39V1299.79H1205.39ZM1042.58 1299.79H1041.58V1300.79H1042.58V1299.79ZM1042.58 974.781V973.781H1041.58V974.781H1042.58ZM1205.39 974.781H1206.39V973.781H1205.39V974.781ZM1205.39 1137.59V1138.59H1206.39V1137.59H1205.39ZM1042.58 1137.59H1041.58V1138.59H1042.58V1137.59ZM1042.58 812.579L1042.58 811.579L1041.58 811.579V812.579H1042.58ZM1205.39 975.389V976.389H1206.39L1206.39 975.389L1205.39 975.389ZM1042.58 975.389H1041.58V976.389H1042.58V975.389ZM1204.18 1461.39V1460.39H1203.18V1461.39H1204.18ZM1366.99 1461.39H1367.99V1460.39H1366.99V1461.39ZM1366.99 1624.2V1625.2H1367.99V1624.2H1366.99ZM1204.18 1624.2H1203.18V1625.2H1204.18V1624.2ZM1204.18 1299.19V1298.19H1203.18V1299.19H1204.18ZM1366.99 1299.19H1367.99V1298.19H1366.99V1299.19ZM1366.99 1462V1463H1367.99V1462H1366.99ZM1204.18 1462H1203.18V1463H1204.18V1462ZM1204.18 1136.98V1135.98H1203.18V1136.98H1204.18ZM1366.99 1136.98H1367.99V1135.98H1366.99V1136.98ZM1366.99 1299.79V1300.79H1367.99V1299.79H1366.99ZM1204.18 1299.79H1203.18V1300.79H1204.18V1299.79ZM1204.18 974.781V973.781H1203.18V974.781H1204.18ZM1366.99 974.781H1367.99V973.781H1366.99V974.781ZM1366.99 1137.59V1138.59H1367.99V1137.59H1366.99ZM1204.18 1137.59H1203.18V1138.59H1204.18V1137.59ZM1204.18 812.579V811.579H1203.18V812.579H1204.18ZM1366.99 812.579H1367.99V811.579H1366.99V812.579ZM1366.99 975.389V976.389H1367.99V975.389H1366.99ZM1204.18 975.389H1203.18V976.389H1204.18V975.389ZM1366.38 1461.39V1460.39H1365.38V1461.39H1366.38ZM1529.19 1461.39H1530.19V1460.39H1529.19V1461.39ZM1529.19 1624.2V1625.2H1530.19V1624.2H1529.19ZM1366.38 1624.2H1365.38V1625.2H1366.38V1624.2ZM1366.38 1299.19V1298.19H1365.38V1299.19H1366.38ZM1529.19 1299.19H1530.19V1298.19H1529.19V1299.19ZM1529.19 1462V1463H1530.19V1462H1529.19ZM1366.38 1462H1365.38V1463H1366.38V1462ZM1366.38 1136.98V1135.98H1365.38V1136.98H1366.38ZM1529.19 1136.98H1530.19V1135.98H1529.19V1136.98ZM1529.19 1299.79V1300.79H1530.19V1299.79H1529.19ZM1366.38 1299.79H1365.38V1300.79H1366.38V1299.79ZM1366.38 974.781V973.781H1365.38V974.781H1366.38ZM1529.19 974.781H1530.19V973.781H1529.19V974.781ZM1529.19 1137.59V1138.59H1530.19V1137.59H1529.19ZM1366.38 1137.59H1365.38V1138.59H1366.38V1137.59ZM1366.38 812.579L1366.38 811.579L1365.38 811.579V812.579H1366.38ZM1529.19 975.389V976.389H1530.19L1530.19 975.389L1529.19 975.389ZM1366.38 975.389H1365.38V976.389H1366.38V975.389ZM1527.97 1461.39V1460.39H1526.97V1461.39H1527.97ZM1690.78 1461.39H1691.78V1460.39H1690.78V1461.39ZM1690.78 1624.2V1625.2H1691.78V1624.2H1690.78ZM1527.97 1624.2H1526.97V1625.2H1527.97V1624.2ZM1527.97 1299.19V1298.19H1526.97V1299.19H1527.97ZM1690.78 1299.19H1691.78V1298.19H1690.78V1299.19ZM1690.78 1462V1463H1691.78V1462H1690.78ZM1527.97 1462H1526.97V1463H1527.97V1462ZM1527.97 1136.98V1135.98H1526.97V1136.98H1527.97ZM1690.78 1136.98H1691.78V1135.98H1690.78V1136.98ZM1690.78 1299.79V1300.79H1691.78V1299.79H1690.78ZM1527.97 1299.79H1526.97V1300.79H1527.97V1299.79ZM1527.97 974.781V973.781H1526.97V974.781H1527.97ZM1690.78 974.781H1691.78V973.781H1690.78V974.781ZM1690.78 1137.59V1138.59H1691.78V1137.59H1690.78ZM1527.97 1137.59H1526.97V1138.59H1527.97V1137.59ZM1527.97 812.579V811.579H1526.97V812.579H1527.97ZM1690.78 812.579H1691.78V811.579H1690.78V812.579ZM1690.78 975.389V976.389H1691.78V975.389H1690.78ZM1527.97 975.389H1526.97V976.389H1527.97V975.389ZM-252 1462.39H-89.19V1460.39H-252V1462.39ZM-90.19 1461.39V1624.2H-88.19V1461.39H-90.19ZM-89.19 1623.2H-252V1625.2H-89.19V1623.2ZM-251 1624.2V1461.39H-253V1624.2H-251ZM-252 1300.19H-89.19V1298.19H-252V1300.19ZM-90.19 1299.19V1462H-88.19V1299.19H-90.19ZM-89.19 1461H-252V1463H-89.19V1461ZM-251 1462V1299.19H-253V1462H-251ZM-252 1137.98H-89.19V1135.98H-252V1137.98ZM-90.19 1136.98V1299.79H-88.19V1136.98H-90.19ZM-89.19 1298.79H-252V1300.79H-89.19V1298.79ZM-251 1299.79V1136.98H-253V1299.79H-251ZM-252 975.781H-89.19V973.781H-252V975.781ZM-90.19 974.781V1137.59H-88.19V974.781H-90.19ZM-89.19 1136.59H-252V1138.59H-89.19V1136.59ZM-251 1137.59V974.781H-253V1137.59H-251ZM-90.19 812.579V975.389H-88.19V812.579H-90.19ZM-89.19 974.389H-252V976.389H-89.19V974.389ZM-251 975.389V812.579H-253V975.389H-251ZM-90.405 1462.39H72.405V1460.39H-90.405V1462.39ZM71.405 1461.39V1624.2H73.405V1461.39H71.405ZM72.405 1623.2H-90.405V1625.2H72.405V1623.2ZM-89.405 1624.2V1461.39H-91.405V1624.2H-89.405ZM-90.405 1300.19H72.405V1298.19H-90.405V1300.19ZM71.405 1299.19V1462H73.405V1299.19H71.405ZM72.405 1461H-90.405V1463H72.405V1461ZM-89.405 1462V1299.19H-91.405V1462H-89.405ZM-90.405 1137.98H72.405V1135.98H-90.405V1137.98ZM71.405 1136.98V1299.79H73.405V1136.98H71.405ZM72.405 1298.79H-90.405V1300.79H72.405V1298.79ZM-89.405 1299.79V1136.98H-91.405V1299.79H-89.405ZM-90.405 975.781H72.405V973.781H-90.405V975.781ZM71.405 974.781V1137.59H73.405V974.781H71.405ZM72.405 1136.59H-90.405V1138.59H72.405V1136.59ZM-89.405 1137.59V974.781H-91.405V1137.59H-89.405ZM71.405 812.579V975.389H73.405V812.579H71.405ZM72.405 974.389H-90.405V976.389H72.405V974.389ZM-89.405 975.389V812.579H-91.405V975.389H-89.405ZM71.7975 1462.39H234.607V1460.39H71.7975V1462.39ZM233.607 1461.39V1624.2H235.607V1461.39H233.607ZM234.607 1623.2H71.7975V1625.2H234.607V1623.2ZM72.7975 1624.2V1461.39H70.7975V1624.2H72.7975ZM71.7975 1300.19H234.607V1298.19H71.7975V1300.19ZM233.607 1299.19V1462H235.607V1299.19H233.607ZM234.607 1461H71.7975V1463H234.607V1461ZM72.7975 1462V1299.19H70.7975V1462H72.7975ZM71.7975 1137.98H234.607V1135.98H71.7975V1137.98ZM233.607 1136.98V1299.79H235.607V1136.98H233.607ZM234.607 1298.79H71.7975V1300.79H234.607V1298.79ZM72.7975 1299.79V1136.98H70.7975V1299.79H72.7975ZM71.7975 975.781H234.607V973.781H71.7975V975.781ZM233.607 974.781V1137.59H235.607V974.781H233.607ZM234.607 1136.59H71.7975V1138.59H234.607V1136.59ZM72.7975 1137.59V974.781H70.7975V1137.59H72.7975ZM233.607 812.579V975.389H235.607V812.579H233.607ZM234.607 974.389H71.7975V976.389H234.607V974.389ZM72.7975 975.389V812.579H70.7975V975.389H72.7975ZM233.392 1462.39H396.203V1460.39H233.392V1462.39ZM395.203 1461.39V1624.2H397.203V1461.39H395.203ZM396.203 1623.2H233.392V1625.2H396.203V1623.2ZM234.392 1624.2V1461.39H232.392V1624.2H234.392ZM233.392 1300.19H396.203V1298.19H233.392V1300.19ZM395.203 1299.19V1462H397.203V1299.19H395.203ZM396.203 1461H233.392V1463H396.203V1461ZM234.392 1462V1299.19H232.392V1462H234.392ZM233.392 1137.98H396.203V1135.98H233.392V1137.98ZM395.203 1136.98V1299.79H397.203V1136.98H395.203ZM396.203 1298.79H233.392V1300.79H396.203V1298.79ZM234.392 1299.79V1136.98H232.392V1299.79H234.392ZM233.392 975.781H396.203V973.781H233.392V975.781ZM395.203 974.781V1137.59H397.203V974.781H395.203ZM396.203 1136.59H233.392V1138.59H396.203V1136.59ZM234.392 1137.59V974.781H232.392V1137.59H234.392ZM395.203 812.579V975.389H397.203V812.579H395.203ZM396.203 974.389H233.392V976.389H396.203V974.389ZM234.392 975.389V812.579H232.392V975.389H234.392ZM395.595 1462.39H558.405V1460.39H395.595V1462.39ZM557.405 1461.39V1624.2H559.405V1461.39H557.405ZM558.405 1623.2H395.595V1625.2H558.405V1623.2ZM396.595 1624.2V1461.39H394.595V1624.2H396.595ZM395.595 1300.19H558.405V1298.19H395.595V1300.19ZM557.405 1299.19V1462H559.405V1299.19H557.405ZM558.405 1461H395.595V1463H558.405V1461ZM396.595 1462V1299.19H394.595V1462H396.595ZM395.595 1137.98H558.405V1135.98H395.595V1137.98ZM557.405 1136.98V1299.79H559.405V1136.98H557.405ZM558.405 1298.79H395.595V1300.79H558.405V1298.79ZM396.595 1299.79V1136.98H394.595V1299.79H396.595ZM395.595 975.781H558.405V973.781H395.595V975.781ZM557.405 974.781V1137.59H559.405V974.781H557.405ZM558.405 1136.59H395.595V1138.59H558.405V1136.59ZM396.595 1137.59V974.781H394.595V1137.59H396.595ZM557.405 812.579V975.389H559.405V812.579H557.405ZM558.405 974.389H395.595V976.389H558.405V974.389ZM396.595 975.389V812.579H394.595V975.389H396.595ZM557.19 1462.39H720V1460.39H557.19V1462.39ZM719 1461.39V1624.2H721V1461.39H719ZM720 1623.2H557.19V1625.2H720V1623.2ZM558.19 1624.2V1461.39H556.19V1624.2H558.19ZM557.19 1300.19H720V1298.19H557.19V1300.19ZM719 1299.19V1462H721V1299.19H719ZM720 1461H557.19V1463H720V1461ZM558.19 1462V1299.19H556.19V1462H558.19ZM557.19 1137.98H720V1135.98H557.19V1137.98ZM719 1136.98V1299.79H721V1136.98H719ZM720 1298.79H557.19V1300.79H720V1298.79ZM558.19 1299.79V1136.98H556.19V1299.79H558.19ZM557.19 975.781H720V973.781H557.19V975.781ZM719 974.781V1137.59H721V974.781H719ZM720 1136.59H557.19V1138.59H720V1136.59ZM558.19 1137.59V974.781H556.19V1137.59H558.19ZM719 812.579V975.389H721V812.579H719ZM720 974.389H557.19V976.389H720V974.389ZM558.19 975.389V812.579H556.19V975.389H558.19ZM-252 650.769H-89.19V648.769H-252V650.769ZM-90.19 649.769V812.579H-88.19V649.769H-90.19ZM-251 812.579V649.769H-253V812.579H-251ZM-252 488.566H-89.19V486.566H-252V488.566ZM-90.19 487.566V650.376H-88.19V487.566H-90.19ZM-89.19 649.376H-252V651.376H-89.19V649.376ZM-251 650.376V487.566H-253V650.376H-251ZM-252 326.364H-89.19V324.364H-252V326.364ZM-90.19 325.364V488.174H-88.19V325.364H-90.19ZM-89.19 487.174H-252V489.174H-89.19V487.174ZM-251 488.174V325.364H-253V488.174H-251ZM-252 164.161H-89.19V162.161H-252V164.161ZM-90.19 163.161V325.971H-88.19V163.161H-90.19ZM-89.19 324.971H-252V326.971H-89.19V324.971ZM-251 325.971V163.161H-253V325.971H-251ZM-252 1.95874H-89.19V-0.0412598H-252V1.95874ZM-90.19 0.95874V163.769H-88.19V0.95874H-90.19ZM-89.19 162.769H-252V164.769H-89.19V162.769ZM-251 163.769V0.95874H-253V163.769H-251ZM-90.405 650.769H72.405V648.769H-90.405V650.769ZM71.405 649.769V812.579H73.405V649.769H71.405ZM-89.405 812.579V649.769H-91.405V812.579H-89.405ZM-90.405 488.566H72.405V486.566H-90.405V488.566ZM71.405 487.566V650.376H73.405V487.566H71.405ZM72.405 649.376H-90.405V651.376H72.405V649.376ZM-89.405 650.376V487.566H-91.405V650.376H-89.405ZM-90.405 326.364H72.405V324.364H-90.405V326.364ZM71.405 325.364V488.174H73.405V325.364H71.405ZM72.405 487.174H-90.405V489.174H72.405V487.174ZM-89.405 488.174V325.364H-91.405V488.174H-89.405ZM-90.405 164.161H72.405V162.161H-90.405V164.161ZM71.405 163.161V325.971H73.405V163.161H71.405ZM72.405 324.971H-90.405V326.971H72.405V324.971ZM-89.405 325.971V163.161H-91.405V325.971H-89.405ZM-90.405 1.95886H72.405V-0.0411426H-90.405V1.95886ZM71.405 0.958857V163.769H73.405V0.958857H71.405ZM72.405 162.769H-90.405V164.769H72.405V162.769ZM-89.405 163.769V0.958857H-91.405V163.769H-89.405ZM71.7975 650.769H234.607V648.769H71.7975V650.769ZM233.607 649.769V812.579H235.607V649.769H233.607ZM72.7975 812.579V649.769H70.7975V812.579H72.7975ZM71.7975 488.566H234.607V486.566H71.7975V488.566ZM233.607 487.566V650.376H235.607V487.566H233.607ZM234.607 649.376H71.7975V651.376H234.607V649.376ZM72.7975 650.376V487.566H70.7975V650.376H72.7975ZM71.7975 326.364H234.607V324.364H71.7975V326.364ZM233.607 325.364V488.174H235.607V325.364H233.607ZM234.607 487.174H71.7975V489.174H234.607V487.174ZM72.7975 488.174V325.364H70.7975V488.174H72.7975ZM71.7975 164.161H234.607V162.161H71.7975V164.161ZM233.607 163.161V325.971H235.607V163.161H233.607ZM234.607 324.971H71.7975V326.971H234.607V324.971ZM72.7975 325.971V163.161H70.7975V325.971H72.7975ZM71.7975 1.95886H234.607V-0.0411426H71.7975V1.95886ZM233.607 0.958857V163.769H235.607V0.958857H233.607ZM234.607 162.769H71.7975V164.769H234.607V162.769ZM72.7975 163.769V0.958857H70.7975V163.769H72.7975ZM233.392 650.769H396.203V648.769H233.392V650.769ZM395.203 649.769V812.579H397.203V649.769H395.203ZM234.392 812.579V649.769H232.392V812.579H234.392ZM233.392 488.566H396.203V486.566H233.392V488.566ZM395.203 487.566V650.376H397.203V487.566H395.203ZM396.203 649.376H233.392V651.376H396.203V649.376ZM234.392 650.376V487.566H232.392V650.376H234.392ZM233.392 326.364H396.203V324.364H233.392V326.364ZM395.203 325.364V488.174H397.203V325.364H395.203ZM396.203 487.174H233.392V489.174H396.203V487.174ZM234.392 488.174V325.364H232.392V488.174H234.392ZM233.392 164.161H396.203V162.161H233.392V164.161ZM395.203 163.161V325.971H397.203V163.161H395.203ZM396.203 324.971H233.392V326.971H396.203V324.971ZM234.392 325.971V163.161H232.392V325.971H234.392ZM233.392 1.95886H396.203V-0.0411426H233.392V1.95886ZM395.203 0.958857V163.769H397.203V0.958857H395.203ZM396.203 162.769H233.392V164.769H396.203V162.769ZM234.392 163.769V0.958857H232.392V163.769H234.392ZM395.595 650.769H558.405V648.769H395.595V650.769ZM557.405 649.769V812.579H559.405V649.769H557.405ZM396.595 812.579V649.769H394.595V812.579H396.595ZM395.595 488.566H558.405V486.566H395.595V488.566ZM557.405 487.566V650.376H559.405V487.566H557.405ZM558.405 649.376H395.595V651.376H558.405V649.376ZM396.595 650.376V487.566H394.595V650.376H396.595ZM395.595 326.364H558.405V324.364H395.595V326.364ZM557.405 325.364V488.174H559.405V325.364H557.405ZM558.405 487.174H395.595V489.174H558.405V487.174ZM396.595 488.174V325.364H394.595V488.174H396.595ZM395.595 164.161H558.405V162.161H395.595V164.161ZM557.405 163.161V325.971H559.405V163.161H557.405ZM558.405 324.971H395.595V326.971H558.405V324.971ZM396.595 325.971V163.161H394.595V325.971H396.595ZM395.595 1.95886H558.405V-0.0411426H395.595V1.95886ZM557.405 0.958857V163.769H559.405V0.958857H557.405ZM558.405 162.769H395.595V164.769H558.405V162.769ZM396.595 163.769V0.958857H394.595V163.769H396.595ZM557.19 650.769H720V648.769H557.19V650.769ZM558.19 812.579V649.769H556.19V812.579H558.19ZM557.19 488.566H720V486.566H557.19V488.566ZM720 649.376H557.19V651.376H720V649.376ZM558.19 650.376V487.566H556.19V650.376H558.19ZM557.19 326.364H720V324.364H557.19V326.364ZM720 487.174H557.19V489.174H720V487.174ZM558.19 488.174V325.364H556.19V488.174H558.19ZM557.19 164.161H720V162.161H557.19V164.161ZM720 324.971H557.19V326.971H720V324.971ZM558.19 325.971V163.161H556.19V325.971H558.19ZM557.19 1.95886H720V-0.0411426H557.19V1.95886ZM720 162.769H557.19V164.769H720V162.769ZM558.19 163.769V0.958857H556.19V163.769H558.19ZM720 650.769L882.81 650.769L882.81 648.769L720 648.769L720 650.769ZM881.81 649.769V812.579H883.81V649.769H881.81ZM882.81 811.579L720 811.579L720 813.579L882.81 813.579L882.81 811.579ZM720 488.566L882.81 488.566L882.81 486.566L720 486.566L720 488.566ZM881.81 487.566V650.376H883.81V487.566H881.81ZM882.81 649.376L720 649.376L720 651.376L882.81 651.376L882.81 649.376ZM720 326.364L882.81 326.364L882.81 324.364L720 324.364L720 326.364ZM881.81 325.364V488.174H883.81V325.364H881.81ZM882.81 487.174L720 487.174L720 489.174L882.81 489.174L882.81 487.174ZM720 164.161L882.81 164.161L882.81 162.161L720 162.161L720 164.161ZM881.81 163.161V325.971H883.81V163.161H881.81ZM882.81 324.971L720 324.971L720 326.971L882.81 326.971L882.81 324.971ZM720 1.95886H882.81V-0.0411426H720V1.95886ZM881.81 0.958857V163.769H883.81V0.958857H881.81ZM882.81 162.769H720V164.769H882.81V162.769ZM881.595 650.769H1044.41V648.769H881.595V650.769ZM1043.41 649.769V812.579H1045.41V649.769H1043.41ZM1044.41 811.579H881.595V813.579H1044.41V811.579ZM882.595 812.579V649.769H880.595V812.579H882.595ZM881.595 488.566H1044.41V486.566H881.595V488.566ZM1043.41 487.566V650.376H1045.41V487.566H1043.41ZM1044.41 649.376H881.595V651.376H1044.41V649.376ZM882.595 650.376V487.566H880.595V650.376H882.595ZM881.595 326.364H1044.41V324.364H881.595V326.364ZM1043.41 325.364V488.174H1045.41V325.364H1043.41ZM1044.41 487.174H881.595V489.174H1044.41V487.174ZM882.595 488.174V325.364H880.595V488.174H882.595ZM881.595 164.161H1044.41V162.161H881.595V164.161ZM1043.41 163.161V325.971H1045.41V163.161H1043.41ZM1044.41 324.971H881.595V326.971H1044.41V324.971ZM882.595 325.971V163.161H880.595V325.971H882.595ZM881.595 1.95897H1044.41V-0.0410254H881.595V1.95897ZM1043.41 0.958975V163.769H1045.41V0.958975H1043.41ZM1044.41 162.769H881.595V164.769H1044.41V162.769ZM882.595 163.769V0.958975H880.595V163.769H882.595ZM1043.8 650.769H1206.61V648.769H1043.8V650.769ZM1205.61 649.769V812.579H1207.61V649.769H1205.61ZM1206.61 811.579H1043.8V813.579H1206.61V811.579ZM1044.8 812.579V649.769H1042.8V812.579H1044.8ZM1043.8 488.566H1206.61V486.566H1043.8V488.566ZM1205.61 487.566V650.376H1207.61V487.566H1205.61ZM1206.61 649.376H1043.8V651.376H1206.61V649.376ZM1044.8 650.376V487.566H1042.8V650.376H1044.8ZM1043.8 326.364H1206.61V324.364H1043.8V326.364ZM1205.61 325.364V488.174H1207.61V325.364H1205.61ZM1206.61 487.174H1043.8V489.174H1206.61V487.174ZM1044.8 488.174V325.364H1042.8V488.174H1044.8ZM1043.8 164.161H1206.61V162.161H1043.8V164.161ZM1205.61 163.161V325.971H1207.61V163.161H1205.61ZM1206.61 324.971H1043.8V326.971H1206.61V324.971ZM1044.8 325.971V163.161H1042.8V325.971H1044.8ZM1043.8 1.95897H1206.61V-0.0410254H1043.8V1.95897ZM1205.61 0.958975V163.769H1207.61V0.958975H1205.61ZM1206.61 162.769H1043.8V164.769H1206.61V162.769ZM1044.8 163.769V0.958975H1042.8V163.769H1044.8ZM1205.39 650.769H1368.2V648.769H1205.39V650.769ZM1367.2 649.769V812.579H1369.2V649.769H1367.2ZM1368.2 811.579H1205.39V813.579H1368.2V811.579ZM1206.39 812.579V649.769H1204.39V812.579H1206.39ZM1205.39 488.566H1368.2V486.566H1205.39V488.566ZM1367.2 487.566V650.376H1369.2V487.566H1367.2ZM1368.2 649.376H1205.39V651.376H1368.2V649.376ZM1206.39 650.376V487.566H1204.39V650.376H1206.39ZM1205.39 326.364H1368.2V324.364H1205.39V326.364ZM1367.2 325.364V488.174H1369.2V325.364H1367.2ZM1368.2 487.174H1205.39V489.174H1368.2V487.174ZM1206.39 488.174V325.364H1204.39V488.174H1206.39ZM1205.39 164.161H1368.2V162.161H1205.39V164.161ZM1367.2 163.161V325.971H1369.2V163.161H1367.2ZM1368.2 324.971H1205.39V326.971H1368.2V324.971ZM1206.39 325.971V163.161H1204.39V325.971H1206.39ZM1205.39 1.95897H1368.2V-0.0410254H1205.39V1.95897ZM1367.2 0.958975V163.769H1369.2V0.958975H1367.2ZM1368.2 162.769H1205.39V164.769H1368.2V162.769ZM1206.39 163.769V0.958975H1204.39V163.769H1206.39ZM1367.59 650.769H1530.41V648.769H1367.59V650.769ZM1529.41 649.769V812.579H1531.41V649.769H1529.41ZM1530.41 811.579H1367.59V813.579H1530.41V811.579ZM1368.59 812.579V649.769H1366.59V812.579H1368.59ZM1367.59 488.566H1530.41V486.566H1367.59V488.566ZM1529.41 487.566V650.376H1531.41V487.566H1529.41ZM1530.41 649.376H1367.59V651.376H1530.41V649.376ZM1368.59 650.376V487.566H1366.59V650.376H1368.59ZM1367.59 326.364H1530.41V324.364H1367.59V326.364ZM1529.41 325.364V488.174H1531.41V325.364H1529.41ZM1530.41 487.174H1367.59V489.174H1530.41V487.174ZM1368.59 488.174V325.364H1366.59V488.174H1368.59ZM1367.59 164.161H1530.41V162.161H1367.59V164.161ZM1529.41 163.161V325.971H1531.41V163.161H1529.41ZM1530.41 324.971H1367.59V326.971H1530.41V324.971ZM1368.59 325.971V163.161H1366.59V325.971H1368.59ZM1367.59 1.95897H1530.41V-0.0410254H1367.59V1.95897ZM1529.41 0.958975V163.769H1531.41V0.958975H1529.41ZM1530.41 162.769H1367.59V164.769H1530.41V162.769ZM1368.59 163.769V0.958975H1366.59V163.769H1368.59ZM1529.19 650.769H1692V648.769H1529.19V650.769ZM1691 649.769V812.579H1693V649.769H1691ZM1692 811.579H1529.19V813.579H1692V811.579ZM1530.19 812.579V649.769H1528.19V812.579H1530.19ZM1529.19 488.566H1692V486.566H1529.19V488.566ZM1691 487.566V650.376H1693V487.566H1691ZM1692 649.376H1529.19V651.376H1692V649.376ZM1530.19 650.376V487.566H1528.19V650.376H1530.19ZM1529.19 326.364H1692V324.364H1529.19V326.364ZM1691 325.364V488.174H1693V325.364H1691ZM1692 487.174H1529.19V489.174H1692V487.174ZM1530.19 488.174V325.364H1528.19V488.174H1530.19ZM1529.19 164.161H1692V162.161H1529.19V164.161ZM1691 163.161V325.971H1693V163.161H1691ZM1692 324.971H1529.19V326.971H1692V324.971ZM1530.19 325.971V163.161H1528.19V325.971H1530.19ZM1529.19 1.95897H1692V-0.0410254H1529.19V1.95897ZM1691 0.958975V163.769H1693V0.958975H1691ZM1692 162.769H1529.19V164.769H1692V162.769ZM1530.19 163.769V0.958975H1528.19V163.769H1530.19ZM718.785 1462.39H881.595V1460.39H718.785V1462.39ZM880.595 1461.39V1624.2H882.595V1461.39H880.595ZM881.595 1623.2H718.785V1625.2H881.595V1623.2ZM719.785 1624.2V1461.39H717.785V1624.2H719.785ZM718.785 1300.19H881.595V1298.19H718.785V1300.19ZM880.595 1299.19V1462H882.595V1299.19H880.595ZM881.595 1461H718.785V1463H881.595V1461ZM719.785 1462V1299.19H717.785V1462H719.785ZM718.785 1137.98H881.595V1135.98H718.785V1137.98ZM880.595 1136.98V1299.79H882.595V1136.98H880.595ZM881.595 1298.79H718.785V1300.79H881.595V1298.79ZM719.785 1299.79V1136.98H717.785V1299.79H719.785ZM718.785 975.781H881.595V973.781H718.785V975.781ZM880.595 974.781V1137.59H882.595V974.781H880.595ZM881.595 1136.59H718.785V1138.59H881.595V1136.59ZM719.785 1137.59V974.781H717.785V1137.59H719.785ZM718.785 813.579L881.595 813.579L881.595 811.579L718.785 811.579L718.785 813.579ZM880.595 812.579V975.389H882.595V812.579H880.595ZM881.595 974.389H718.785V976.389H881.595V974.389ZM719.785 975.389V812.579H717.785V975.389H719.785ZM880.38 1462.39H1043.19V1460.39H880.38V1462.39ZM1042.19 1461.39V1624.2H1044.19V1461.39H1042.19ZM1043.19 1623.2H880.38V1625.2H1043.19V1623.2ZM881.38 1624.2V1461.39H879.38V1624.2H881.38ZM880.38 1300.19H1043.19V1298.19H880.38V1300.19ZM1042.19 1299.19V1462H1044.19V1299.19H1042.19ZM1043.19 1461H880.38V1463H1043.19V1461ZM881.38 1462V1299.19H879.38V1462H881.38ZM880.38 1137.98H1043.19V1135.98H880.38V1137.98ZM1042.19 1136.98V1299.79H1044.19V1136.98H1042.19ZM1043.19 1298.79H880.38V1300.79H1043.19V1298.79ZM881.38 1299.79V1136.98H879.38V1299.79H881.38ZM880.38 975.781H1043.19V973.781H880.38V975.781ZM1042.19 974.781V1137.59H1044.19V974.781H1042.19ZM1043.19 1136.59H880.38V1138.59H1043.19V1136.59ZM881.38 1137.59V974.781H879.38V1137.59H881.38ZM880.38 813.579H1043.19V811.579H880.38V813.579ZM1042.19 812.579V975.389H1044.19V812.579H1042.19ZM1043.19 974.389H880.38V976.389H1043.19V974.389ZM881.38 975.389V812.579H879.38V975.389H881.38ZM1042.58 1462.39H1205.39V1460.39H1042.58V1462.39ZM1204.39 1461.39V1624.2H1206.39V1461.39H1204.39ZM1205.39 1623.2H1042.58V1625.2H1205.39V1623.2ZM1043.58 1624.2V1461.39H1041.58V1624.2H1043.58ZM1042.58 1300.19H1205.39V1298.19H1042.58V1300.19ZM1204.39 1299.19V1462H1206.39V1299.19H1204.39ZM1205.39 1461H1042.58V1463H1205.39V1461ZM1043.58 1462V1299.19H1041.58V1462H1043.58ZM1042.58 1137.98H1205.39V1135.98H1042.58V1137.98ZM1204.39 1136.98V1299.79H1206.39V1136.98H1204.39ZM1205.39 1298.79H1042.58V1300.79H1205.39V1298.79ZM1043.58 1299.79V1136.98H1041.58V1299.79H1043.58ZM1042.58 975.781H1205.39V973.781H1042.58V975.781ZM1204.39 974.781V1137.59H1206.39V974.781H1204.39ZM1205.39 1136.59H1042.58V1138.59H1205.39V1136.59ZM1043.58 1137.59V974.781H1041.58V1137.59H1043.58ZM1042.58 813.579L1205.39 813.579L1205.39 811.579L1042.58 811.579L1042.58 813.579ZM1204.39 812.579L1204.39 975.389L1206.39 975.389L1206.39 812.579L1204.39 812.579ZM1205.39 974.389H1042.58V976.389H1205.39V974.389ZM1043.58 975.389V812.579H1041.58V975.389H1043.58ZM1204.18 1462.39H1366.99V1460.39H1204.18V1462.39ZM1365.99 1461.39V1624.2H1367.99V1461.39H1365.99ZM1366.99 1623.2H1204.18V1625.2H1366.99V1623.2ZM1205.18 1624.2V1461.39H1203.18V1624.2H1205.18ZM1204.18 1300.19H1366.99V1298.19H1204.18V1300.19ZM1365.99 1299.19V1462H1367.99V1299.19H1365.99ZM1366.99 1461H1204.18V1463H1366.99V1461ZM1205.18 1462V1299.19H1203.18V1462H1205.18ZM1204.18 1137.98H1366.99V1135.98H1204.18V1137.98ZM1365.99 1136.98V1299.79H1367.99V1136.98H1365.99ZM1366.99 1298.79H1204.18V1300.79H1366.99V1298.79ZM1205.18 1299.79V1136.98H1203.18V1299.79H1205.18ZM1204.18 975.781H1366.99V973.781H1204.18V975.781ZM1365.99 974.781V1137.59H1367.99V974.781H1365.99ZM1366.99 1136.59H1204.18V1138.59H1366.99V1136.59ZM1205.18 1137.59V974.781H1203.18V1137.59H1205.18ZM1204.18 813.579H1366.99V811.579H1204.18V813.579ZM1365.99 812.579V975.389H1367.99V812.579H1365.99ZM1366.99 974.389H1204.18V976.389H1366.99V974.389ZM1205.18 975.389V812.579H1203.18V975.389H1205.18ZM1366.38 1462.39H1529.19V1460.39H1366.38V1462.39ZM1528.19 1461.39V1624.2H1530.19V1461.39H1528.19ZM1529.19 1623.2H1366.38V1625.2H1529.19V1623.2ZM1367.38 1624.2V1461.39H1365.38V1624.2H1367.38ZM1366.38 1300.19H1529.19V1298.19H1366.38V1300.19ZM1528.19 1299.19V1462H1530.19V1299.19H1528.19ZM1529.19 1461H1366.38V1463H1529.19V1461ZM1367.38 1462V1299.19H1365.38V1462H1367.38ZM1366.38 1137.98H1529.19V1135.98H1366.38V1137.98ZM1528.19 1136.98V1299.79H1530.19V1136.98H1528.19ZM1529.19 1298.79H1366.38V1300.79H1529.19V1298.79ZM1367.38 1299.79V1136.98H1365.38V1299.79H1367.38ZM1366.38 975.781H1529.19V973.781H1366.38V975.781ZM1528.19 974.781V1137.59H1530.19V974.781H1528.19ZM1529.19 1136.59H1366.38V1138.59H1529.19V1136.59ZM1367.38 1137.59V974.781H1365.38V1137.59H1367.38ZM1366.38 813.579L1529.19 813.579L1529.19 811.579L1366.38 811.579L1366.38 813.579ZM1528.19 812.579L1528.19 975.389L1530.19 975.389L1530.19 812.579L1528.19 812.579ZM1529.19 974.389H1366.38V976.389H1529.19V974.389ZM1367.38 975.389V812.579H1365.38V975.389H1367.38ZM1527.97 1462.39H1690.78V1460.39H1527.97V1462.39ZM1689.78 1461.39V1624.2H1691.78V1461.39H1689.78ZM1690.78 1623.2H1527.97V1625.2H1690.78V1623.2ZM1528.97 1624.2V1461.39H1526.97V1624.2H1528.97ZM1527.97 1300.19H1690.78V1298.19H1527.97V1300.19ZM1689.78 1299.19V1462H1691.78V1299.19H1689.78ZM1690.78 1461H1527.97V1463H1690.78V1461ZM1528.97 1462V1299.19H1526.97V1462H1528.97ZM1527.97 1137.98H1690.78V1135.98H1527.97V1137.98ZM1689.78 1136.98V1299.79H1691.78V1136.98H1689.78ZM1690.78 1298.79H1527.97V1300.79H1690.78V1298.79ZM1528.97 1299.79V1136.98H1526.97V1299.79H1528.97ZM1527.97 975.781H1690.78V973.781H1527.97V975.781ZM1689.78 974.781V1137.59H1691.78V974.781H1689.78ZM1690.78 1136.59H1527.97V1138.59H1690.78V1136.59ZM1528.97 1137.59V974.781H1526.97V1137.59H1528.97ZM1527.97 813.579H1690.78V811.579H1527.97V813.579ZM1689.78 812.579V975.389H1691.78V812.579H1689.78ZM1690.78 974.389H1527.97V976.389H1690.78V974.389ZM1528.97 975.389V812.579H1526.97V975.389H1528.97Z" fill="url(#paint0_radial_33_32)" fill-opacity="0.8" mask="url(#path-1-inside-1_33_32)" />
            <defs>
              <radialGradient id="paint0_radial_33_32" cx="0" cy="0" r="1" gradientUnits="userSpaceOnUse" gradientTransform="translate(720 812.579) rotate(90) scale(765 972)">
                <stop stop-color="#C0C0C2" />
                <stop offset="0.799016" stop-color="#969599" stop-opacity="0" />
              </radialGradient>
            </defs>
          </svg>